# xmcd CD database file
#
# Track frame offsets:
#	150
#	19945
#	44010
#	69995
#	91539
#
# Disc length: 1876 seconds
#
# Revision: 1
# Processed by: cddbd v1.5.2PL0 Copyright (c) Steve Scherf et al.
# Submitted via: CDex 1.51
#
DISCID=36075205
DTITLE=Pharoah Sanders - Wisdom Through Music
DYEAR=1972
DGENRE=Jazz
TTITLE0=High Life
TTITLE1=Love Is Everywhere
TTITLE2=Wisdom Through Music
TTITLE3=The Golden Lamp
TTITLE4=Selflessness
EXTD=YEAR: 1972
EXTT0=
EXTT1=
EXTT2=
EXTT3=
EXTT4=
PLAYORDER=
